<svg width="399" height="268" viewBox="0 0 399 268" fill="none" xmlns="http://www.w3.org/2000/svg">
<path d="M129.467 116.258C129.467 78.1469 160.362 47.2516 198.473 47.2516V47.2516C236.584 47.2516 267.479 78.1468 267.479 116.258V157.978C267.479 171.233 256.734 181.978 243.479 181.978H155.467C141.107 181.978 129.467 170.338 129.467 155.978V116.258Z" fill="#317B7B"/>
<circle cx="198.473" cy="215.66" r="23.0022" fill="#317B7B"/>
<path d="M105.026 84.844C114.49 53.8292 127.451 41.7052 158.847 31.141C160.976 30.4246 163.325 30.9981 164.913 32.5866C168.252 35.9248 166.595 41.6534 162.071 43.0008C136.679 50.5622 125.248 62.3383 117.195 88.0905C115.763 92.6674 109.955 94.2818 106.564 90.8909C104.981 89.3081 104.373 86.985 105.026 84.844Z" fill="#317B7B"/>
<path d="M240.156 31.0261C271.171 40.4905 283.295 53.4511 293.859 84.8471C294.575 86.9762 294.002 89.325 292.413 90.9135C289.075 94.2516 283.347 92.5952 281.999 88.0706C274.438 62.6791 262.662 51.2477 236.909 43.1946C232.333 41.7633 230.718 35.955 234.109 32.564C235.692 30.9812 238.015 30.3727 240.156 31.0261Z" fill="#317B7B"/>
<rect x="155.5" y="79.5" width="20" height="37" rx="10" fill="#EFF4F4"/>
<rect x="155.5" y="79.5" width="20" height="37" rx="10" stroke="black"/>
<rect x="155.5" y="79.5" width="20" height="37" rx="10" stroke="black" stroke-opacity="0.2"/>
<path d="M174.492 137.316C183.766 140.16 191.562 141.579 199.403 141.568C207.245 141.558 215.106 140.119 224.512 137.28C226.983 136.534 229.5 138.352 229.5 140.906C229.5 142.435 228.568 143.813 227.148 144.36C216.676 148.397 208.229 150.467 199.724 150.5C191.22 150.532 182.617 148.529 171.834 144.358C170.424 143.812 169.5 142.443 169.5 140.924C169.5 138.371 172.025 136.559 174.492 137.316Z" fill="#EFF4F4" stroke="black"/>
<rect x="159" y="89" width="13" height="19" rx="6.5" fill="black"/>
<circle cx="167" cy="93" r="1" fill="#EFF4F4"/>
<rect x="219.5" y="79.5" width="20" height="37" rx="10" fill="#EFF4F4" stroke="black"/>
<rect x="223" y="89" width="13" height="19" rx="6.5" fill="black"/>
<circle cx="231" cy="93" r="1" fill="#EFF4F4"/>
</svg>
